# xmcd CD database file
#
# Track frame offsets:
#	150
#	10775
#	24667
#	35697
#	50955
#	64857
#	79330
#	95337
#	110690
#	123887
#	145940
#	160792
#	179417
#	193130
#
# Disc length: 2764 seconds
#
# Revision: 0
# Processed by: cddbd v1.5.1PL2 Copyright (c) Steve Scherf et al.
# Submitted via: CDex 1.51
#
DISCID=c50aca0e
DTITLE=Chet Baker - THE GRAET JAZZ ARTIST SERIES
DYEAR=1968
DGENRE=Jazz
TTITLE0=1.MY FUNNY VALENTINE
TTITLE1=2.BUT NOT FOR ME
TTITLE2=3.LIKE SOMEONE IN LOVE
TTITLE3=4.I FALL IN LOVE TOO EASILY
TTITLE4=5.THAT OLD FEELING
TTITLE5=6.TRAVELIN' LIGHT
TTITLE6=7.DON'T EXPLAIN
TTITLE7=8.EASY LIVING
TTITLE8=9.WHEN YOUR LOVER HAS GONE
TTITLE9=10.YOU DON'T KNOW WHAT LOVE IS
TTITLE10=11.I REMEMBER YOU
TTITLE11=12.BORN TO BE BLUE
TTITLE12=13.TASTE OF HONEY
TTITLE13=14.SWEET LORRAINE
EXTD=YEAR: 1968
EXTT0=
EXTT1=
EXTT2=
EXTT3=
EXTT4=
EXTT5=
EXTT6=
EXTT7=
EXTT8=
EXTT9=
EXTT10=
EXTT11=
EXTT12=
EXTT13=
PLAYORDER=
